<svg width="745" height="992" viewBox="0 0 745 992" fill="none" xmlns="http://www.w3.org/2000/svg">
<g clip-path="url(#clip0_723_14)">
<path fill-rule="evenodd" clip-rule="evenodd" d="M370.363 0.753202C366.153 0.200202 361.909 -0.0528019 357.664 -0.00380188C320.235 -0.00080188 259.156 14.9292 218.487 34.1792C147.074 67.1132 88.0951 122.065 50.2011 190.974C11.8591 259.769 -3.14593 339.141 7.43707 417.186C15.0121 475.433 36.3511 531.039 69.6871 579.4C103.023 627.763 147.399 667.49 199.141 695.294C250.883 723.098 308.503 738.179 367.232 739.288C425.961 740.397 484.113 727.501 536.868 701.671C683.054 629.66 745.833 485.931 743.518 373.919L743.486 372.362L684.756 372.676L684.698 374.187C681.294 461.857 648.832 535.552 588.579 593.292L588.567 593.303C560.239 621.033 526.727 642.911 489.943 657.687C453.16 672.464 413.826 679.851 374.187 679.425H374.17H360.897C210.787 673.867 87.3861 558.855 67.1231 405.846L67.1211 405.835C57.3901 336.097 73.2781 265.197 111.837 206.279L111.844 206.268C171.009 114.119 257.701 64.6622 370.234 59.1872L371.738 59.1142V0.933195L370.363 0.753202ZM572.402 172.412C520.057 119.898 448.995 90.3292 374.848 90.2082C303.103 89.4142 233.97 117.1 182.606 167.198L181.4 168.373L204.422 189.195L225.098 208.07L226.164 207.102C257.895 178.279 297.375 159.385 339.727 152.756C382.078 146.127 425.444 152.052 464.464 169.801C503.485 187.549 536.449 216.342 559.284 252.621C582.119 288.9 593.822 331.075 592.949 373.933C592.076 416.791 578.663 458.454 554.369 493.773C530.075 529.091 495.965 556.517 456.254 572.661C416.543 588.805 372.972 592.959 330.926 584.609C288.88 576.26 250.201 555.773 219.672 525.682L218.503 524.53L187.667 558.219L178.581 568.221L179.589 569.286C227.098 619.489 299.235 649.367 373.944 649.368C448.093 649.487 519.253 620.145 571.768 567.798C624.284 515.451 653.853 444.385 653.972 370.236C654.091 296.087 624.75 224.928 572.402 172.412ZM278.897 202.211C308.141 185.523 341.245 176.782 374.915 176.857C403.015 176.806 430.778 182.973 456.214 194.916C534.271 231.324 567.934 307.513 566.658 364.698L566.624 366.243H507.458L507.393 364.731C506.472 343.576 500.538 322.943 490.081 304.53C479.623 286.118 464.941 270.453 447.243 258.827L447.22 258.812C425.969 244.308 400.802 236.627 375.073 236.793H375.065C369.217 236.799 363.376 237.167 357.574 237.895C325.716 241.854 296.385 257.273 275.062 281.272C253.738 305.271 241.878 336.21 241.695 368.313V368.321C241.034 428.81 285.889 496.178 370.436 503.089L371.888 503.208V561.311H364.065C314.199 561.311 243.644 530.798 206.186 463.897C189.742 434.514 181.278 401.337 181.636 367.668C181.993 333.998 191.16 301.009 208.223 271.981C225.287 242.953 249.653 218.899 278.897 202.211ZM431.712 367.444C431.712 400.858 404.625 427.944 371.212 427.944C337.799 427.944 310.712 400.858 310.712 367.444C310.712 334.031 337.799 306.944 371.212 306.944C404.625 306.944 431.712 334.031 431.712 367.444ZM254.899 891.76H276.635V972.87H326.761V990.3H254.899V891.76ZM172.259 891.93L128.317 990.48H150.465L159.3 969.04H206.717L215.553 990.48H238.231L194.171 891.93H172.259ZM166.192 952.96L183.097 912.02L200.061 952.96H166.192ZM56.3371 954.72L93.6231 891.88H111.53L111.824 990.42H91.5611L91.3851 928.51L64.9961 972.87L55.9841 987.77L51.6841 980.7L51.2131 979.88L20.7601 929.87V990.48H0.49707V891.93V891.88H18.4631L56.3371 954.72ZM327.763 891.76V909.13H359.747V990.3H381.423V909.13H413.408V891.7H327.763V891.76ZM718.172 896.65C726.36 901.06 732.78 907.19 737.493 914.97C742.146 922.62 744.502 931.28 744.502 941C744.502 950.72 742.205 959.44 737.493 967.21C732.78 974.87 726.36 980.94 718.172 985.35C709.985 989.77 700.796 992.01 690.488 992.01C680.239 992.01 670.932 989.77 662.686 985.35C654.498 980.94 648.078 974.93 643.365 967.21C638.771 959.44 636.474 950.66 636.474 941C636.474 931.34 638.771 922.68 643.365 914.97C648.078 907.19 654.498 901.06 662.686 896.65C670.991 892.23 680.239 889.99 690.488 889.99C700.796 889.99 709.985 892.23 718.172 896.65ZM706.863 969.63C711.752 966.8 715.581 962.85 718.29 957.91C721.117 952.96 722.531 947.3 722.531 941C722.531 934.7 721.117 929.1 718.29 924.1C715.581 919.15 711.752 915.26 706.863 912.55C701.974 909.72 696.496 908.31 690.488 908.31C684.48 908.31 679.002 909.72 674.113 912.55C669.283 915.26 665.395 919.09 662.568 924.1C659.799 929.04 658.445 934.7 658.445 941C658.445 947.3 659.858 952.9 662.568 957.91C665.395 962.91 669.224 966.8 674.113 969.63C679.002 972.34 684.48 973.69 690.488 973.69C696.555 973.69 701.974 972.34 706.863 969.63ZM455.11 948.6H498.11V932.05H455.11V908.9H507.711V891.76H433.552V990.3H509.537V973.16H455.11V948.6ZM581.694 908.25C575.215 908.25 569.443 909.66 564.377 912.49C559.311 915.26 555.365 919.15 552.537 924.21C549.71 929.28 548.296 935.11 548.296 941.71C548.296 948.6 549.592 953.65 552.361 958.54C555.188 963.43 558.958 967.14 563.67 969.67C567.852 971.85 572.388 973.03 577.218 973.26H598.423V946.46H618.097V991.17H575.149C574.722 991.17 573.684 991.11 573.684 991.11L572.918 991.05C565.084 990.64 557.839 988.7 551.183 985.22C543.584 981.27 537.576 975.56 533.04 968.08C528.505 960.54 526.267 952.37 526.267 941.88C526.267 931.81 528.564 922.86 533.158 915.08C537.87 907.19 544.35 901.06 552.596 896.65C560.902 892.23 570.208 889.99 580.575 889.99C589.234 889.99 597.068 891.46 604.195 894.35C611.028 897.18 616.742 901.18 621.454 906.48L607.612 919.27C600.426 911.9 591.767 908.25 581.694 908.25Z" fill="#303849"/>
</g>
<defs>
<clipPath id="clip0_723_14">
<rect width="745" height="992" fill="white"/>
</clipPath>
</defs>
</svg>
